<?xml version="1.0" standalone="no"?>
<!DOCTYPE svg PUBLIC "-//W3C//DTD SVG 20010904//EN"
 "http://www.w3.org/TR/2001/REC-SVG-20010904/DTD/svg10.dtd">
<svg version="1.0" xmlns="http://www.w3.org/2000/svg"
 width="16.000000pt" height="16.000000pt" viewBox="0 0 16.000000 16.000000"
 preserveAspectRatio="xMidYMid meet">
<metadata>
Created by potrace 1.11, written by Peter Selinger 2001-2013
</metadata>
<g transform="translate(0.000000,16.000000) scale(0.015534,-0.015534)"
fill="#000000" stroke="none">
<path d="M800 800 c0 -4 -22 -5 -49 -2 -64 6 -114 -12 -158 -56 -20 -21 -33
-31 -29 -25 4 7 2 22 -4 33 -10 19 -19 20 -243 17 l-232 -2 0 -69 0 -70 32 -8
c22 -6 44 -26 77 -70 41 -55 46 -68 46 -113 0 -46 -3 -53 -25 -63 -21 -10 -25
-18 -25 -56 0 -77 -2 -76 129 -76 64 0 121 4 126 8 12 8 13 102 1 120 -4 7
-14 12 -22 12 -10 0 -14 13 -14 52 0 47 5 58 55 125 64 84 90 94 101 37 6 -35
48 -86 93 -115 24 -15 24 -16 -29 -18 -30 -1 -58 -7 -62 -14 -4 -6 -7 -57 -6
-112 l3 -100 147 0 148 0 42 43 c43 42 43 43 43 115 0 67 -3 77 -30 109 -16
19 -42 43 -58 52 -34 22 -29 32 17 30 19 -1 40 3 45 10 16 19 21 183 6 196
-14 12 -125 21 -125 10z m-22 -184 c3 -15 1 -16 -17 -5 -11 7 -17 17 -14 22 8
13 28 2 31 -17z m-16 -200 c4 -5 5 -13 2 -18 -8 -13 -31 2 -43 28 -10 23 -10
24 12 13 12 -7 25 -17 29 -23z"/>
</g>
</svg>
